<?xml version="1.0" standalone="no"?>
<!DOCTYPE svg PUBLIC "-//W3C//DTD SVG 20010904//EN"
 "http://www.w3.org/TR/2001/REC-SVG-20010904/DTD/svg10.dtd">
<svg version="1.0" xmlns="http://www.w3.org/2000/svg"
 width="700.000000pt" height="700.000000pt" viewBox="0 0 700.000000 700.000000"
 preserveAspectRatio="xMidYMid meet">
<metadata>
Created by potrace 1.11, written by Peter Selinger 2001-2013
</metadata>
<g transform="translate(0.000000,700.000000) scale(0.100000,-0.100000)"
fill="#000000" stroke="none">
<path d="M2820 6562 c-196 -19 -332 -121 -391 -293 -20 -60 -21 -82 -22 -359
0 -238 3 -305 16 -346 53 -176 185 -288 367 -310 25 -3 47 -9 50 -14 3 -4 4
-250 4 -547 -1 -584 -3 -602 -59 -729 -41 -92 -42 -94 -113 -190 -37 -50 -75
-102 -84 -115 -10 -13 -51 -69 -91 -124 -139 -189 -360 -490 -421 -574 -34
-46 -110 -150 -171 -232 -60 -82 -165 -224 -232 -316 -68 -93 -204 -278 -303
-413 -99 -135 -193 -271 -210 -303 -51 -102 -64 -186 -64 -432 0 -222 4 -292
25 -355 18 -57 20 -65 21 -70 3 -10 71 -123 87 -143 109 -139 275 -235 438
-253 75 -8 3602 -8 3668 0 214 27 402 163 499 360 62 126 73 193 71 451 -1
116 -5 225 -9 244 -12 59 -47 154 -73 199 -22 36 -364 511 -406 562 -21 26
-230 313 -296 406 -19 27 -37 51 -41 54 -5 5 -175 236 -250 340 -19 27 -102
141 -185 252 -438 594 -454 618 -491 753 -14 52 -17 131 -19 575 -1 283 2 520
6 526 5 6 10 25 11 43 3 39 1 37 62 45 187 25 324 147 366 326 17 70 18 570 2
647 -38 172 -184 308 -357 329 -54 6 -1344 13 -1405 6z m1335 -653 l0 -216
-69 -11 c-147 -23 -295 -135 -331 -252 -4 -14 -19 -50 -33 -80 l-26 -54 0
-541 c-1 -589 2 -668 35 -795 51 -195 92 -268 357 -628 107 -147 287 -392 399
-545 112 -153 248 -338 302 -410 53 -73 105 -144 115 -160 l18 -27 -223 0
c-123 0 -767 -2 -1432 -3 -664 -1 -1207 2 -1207 6 0 4 31 49 68 100 37 51 92
126 122 167 30 41 60 82 67 90 7 8 41 54 75 102 135 186 383 524 393 535 5 6
20 27 33 45 13 18 66 91 118 161 170 230 221 313 270 444 33 88 62 206 69 283
11 116 7 1181 -4 1232 -15 66 -55 146 -95 191 -70 77 -183 133 -285 142 -20 2
-39 4 -42 4 -4 1 -5 435 0 436 0 0 295 0 654 0 l652 0 0 -216z m1183 -4281
c140 -193 127 -154 129 -378 3 -187 2 -197 -21 -246 -22 -48 -59 -84 -116
-115 -21 -11 -342 -13 -1815 -14 -1623 0 -1794 1 -1838 16 -56 19 -91 49 -120
104 -20 37 -22 56 -24 245 -1 143 2 216 10 240 7 19 52 88 100 153 l88 117
1759 0 1758 0 90 -122z"/>
</g>
</svg>
